<?xml version="1.0" encoding="utf-8"?>
<!-- Generator: Adobe Illustrator 26.0.0, SVG Export Plug-In . SVG Version: 6.00 Build 0)  -->
<svg version="1.1" id="Capa_1" xmlns="http://www.w3.org/2000/svg" xmlns:xlink="http://www.w3.org/1999/xlink" x="0px" y="0px"
	 viewBox="0 0 512 512" style="enable-background:new 0 0 512 512;" xml:space="preserve">
<style type="text/css">
	.st0{fill:#00BFFF;}
</style>
<path class="st0" d="M492.7,42.8c25,25,25,65.6,0,90.6l-56.4,56.4l-114-114l56.4-56.4c25-25,65.6-25,90.6,0L492.7,42.8z M44.9,353.2
	L299.7,98.3l114,114L158.8,467.1c-6.7,6.7-15,11.6-24.2,14.3l-104,29.7c-8.4,2.4-17.4,0-23.6-7c-6.2-5.3-8.5-14.3-6.1-22.7l29.7-104
	C33.3,368.2,38.2,359.9,44.9,353.2z M249.4,103.4l-146,146L16,161.9c-18.7-18.7-18.7-49.1,0-67.8L94.1,16
	c18.7-18.7,49.1-18.7,67.8,0l19.8,19.8c-0.3,0.3-0.7,0.6-1,0.9l-64,64c-6.3,6.2-6.3,16.4,0,22.6c6.2,6.3,16.4,6.3,22.6,0l64-64
	c0.3-0.3-0.2-0.7,0.9-1L249.4,103.4z M453.7,307.8c-0.3,0.2-0.7,0.6-1,0.9l-64,64c-6.3,6.2-6.3,16.4,0,22.6c6.2,6.3,16.4,6.3,22.6,0
	l64-64c0.3-1.2-0.2-0.7,0.9-1l19.8,19.8c18.7,18.7,18.7,49.1,0,67.8L417.9,496c-18.7,18.7-49.1,18.7-67.8,0l-87.5-87.4l146-146
	L453.7,307.8z"/>
</svg>
